<svg width="130" height="130" fill="none" xmlns="http://www.w3.org/2000/svg"><g clip-path="url(#clip0)"><path d="M110.343 27.971a2.708 2.708 0 00-2.004-.888H21.672a2.708 2.708 0 00-2.708 2.963l8.125 86.666a2.708 2.708 0 001.955 2.351l37.916 10.834a2.796 2.796 0 001.609-.033l32.5-10.833a2.708 2.708 0 001.842-2.319l8.125-86.666a2.71 2.71 0 00-.693-2.075z" fill="#3E6BDE"/><path d="M67.714 108.334a2.742 2.742 0 01-.742-.109l-18.958-5.416a2.71 2.71 0 01-1.885-1.945L43.42 90.03a2.708 2.708 0 115.254-1.31l2.33 9.316 16.71 4.778 16.466-4.708 4.875-43.934H40.63a2.708 2.708 0 010-5.417h51.46a2.708 2.708 0 012.708 3.006l-5.417 48.75a2.708 2.708 0 01-1.95 2.302l-18.958 5.417a2.695 2.695 0 01-.758.104z" fill="#FAFAFA"/><path d="M89.38 75.833H43.34a2.708 2.708 0 010-5.416h46.04a2.709 2.709 0 010 5.416z" fill="#FAFAFA"/><path d="M48.756 16.25H37.922a2.708 2.708 0 01-2.708-2.708V2.71A2.709 2.709 0 0137.922 0h10.834a2.708 2.708 0 010 5.417H40.63v5.417h8.125a2.708 2.708 0 010 5.416zm21.666 0H59.59a2.709 2.709 0 010-5.417h4.295l-6.213-6.208A2.708 2.708 0 0159.59 0h10.833a2.709 2.709 0 010 5.416h-4.295l6.207 6.208a2.708 2.708 0 01-1.912 4.626zm21.667 0H81.256a2.708 2.708 0 010-5.417h4.295l-6.213-6.208A2.708 2.708 0 0181.256 0h10.833a2.709 2.709 0 010 5.416h-4.295L94 11.624a2.708 2.708 0 01-1.912 4.626z" fill="#37474F"/></g><defs><clipPath id="clip0"><path fill="#fff" d="M0 0h130v130H0z"/></clipPath></defs></svg>