<svg width="130" height="130" fill="none" xmlns="http://www.w3.org/2000/svg"><g clip-path="url(#clip0)"><path d="M82.097 105.256l3.445-5.871s-7.822 3.201-20.908 3.201c-13.098 0-20.8-3.077-20.8-3.077l3.85 6.408 1.366 20.199c0 2.183 7.117 3.889 15.903 3.889 8.791 0 15.914-1.701 15.914-3.889l1.24-20.773v-.087h-.01zm3.331-38.165c-4.165.249-6.245 4.89-8.336 9.777-.775 1.787-3.412 9.408-5.135 8.466-1.722-.937 2.237-7.199 3.353-10.925-1.284.942-5.986 4.598-7.199 1.164-1.939 1.7-6.115 2.6-5.644-1.782-1.035 1.869-3.364 4.458-6.17 3.326-3.645-1.381 2.14-13.06 3.575-12.496 1.441.655-.287 3.25-.736 4.3-1.008 2.27-2.156 5.19-1.382 5.758 1.3 1.051 4.897-3.808 4.978-3.894.672-.894 2.595-6.657 4.133-5.996 1.544.725-3.85 8.347-1.841 9.89.411.325 2.074-.162 3.082-1.294.65-.65.422-2.275 2.594-7.464 2.189-5.195 4.139-11.679 5.628-11.191 1.49.487.266 3.808-.276 5.108-2.513 5.839-6.868 15.405-4.82 14.679 2.025-.731 3.081-.731 5.107-3.082 2.026-2.351 1.869-6.24 3.245-6.159 1.3.076 1.137 1.376.812 2.264 1.3-1.462 6.24-4.702 7.383-1.538 1.376 3.727-7.063 9.165-4.95 8.84 2.03-.244 5.35-2.351 6.813-4.296l3.895-35.208s-3.976 3.25-29.039 3.25c-25.063 0-28.621-3.163-28.621-3.163l3.32 32.12c1.787-5.026 6.002-15.242 12.578-14.841 3 .162 7.057 6.007 3.564 6.17-1.463.08-1.625-2.92-3.326-3.326-1.295-.25-3.001.73-4.133 1.868-2.188 2.189-7.063 10.866-6.413 15.172.812 5.515 7.62-1.874 8.758-4.062.807-1.533 1.376-6.164 3.077-5.677 1.788.488-.157 5.276-1.462 9.41-1.463 4.706-2.189 9.646-3.966 9.077-1.787-.563 1.133-6.646.965-7.702-1.696 1.62-4.783 5.525-8.835 3.57L42.03 97.24s5.52 4.295 22.062 4.295c16.543 0 22.306-4.295 22.306-4.295l2.594-23.2c-2.107 2.113-8.758 5.758-9.165 1.625-.32-3.326 7.22-8.114 5.276-8.2l.325-.374zM93.96 3.623L79.556 18.79l-2.633 10.297c10.189.65 17.274 2.091 17.274 3.76 0 2.269-13.076 4.1-29.201 4.1-16.126 0-29.196-1.858-29.196-4.133 0-2.27 13.076-4.138 29.201-4.138 2.291 0 4.572 0 6.847.086l3.038-12.328L90.19.21c.369-.488 1.517-.081 2.568.812 1.05.808 1.62 1.864 1.295 2.351v.163l-.093.086zm-20.768 31.39s-2.833 0-3.304-.433a.76.76 0 01-.195-.488c0-.314.211-.493.487-.596l.239.407c-.114.032-.157.08-.18.124 0 .222 1.702.374 3.007.358 1.295-.017 2.876-.125 2.887-.347 0-.065-.124-.124-.33-.179l.244-.39c.34.109.633.314.633.656 0 .596-.763.693-1.246.764-.58.08-2.231.124-2.231.124h-.011z" fill="#EA6767"/></g><defs><clipPath id="clip0"><path fill="#fff" d="M0 0h130v130H0z"/></clipPath></defs></svg>