<svg width="130" height="130" fill="none" xmlns="http://www.w3.org/2000/svg"><g clip-path="url(#clip0)"><path d="M27.09.001a2.709 2.709 0 00-2.71 2.709v10.833a2.709 2.709 0 005.417 0V2.71A2.708 2.708 0 0027.09 0z" fill="#37474F"/><path d="M37.922 10.833H27.09a2.708 2.708 0 010-5.417h10.833a2.709 2.709 0 010 5.417z" fill="#37474F"/><path d="M37.922 16.25a2.708 2.708 0 01-2.708-2.708V2.708a2.708 2.708 0 015.417 0v10.834a2.708 2.708 0 01-2.709 2.708zM59.59 5.417H48.755a2.708 2.708 0 010-5.417h10.833a2.709 2.709 0 010 5.417z" fill="#37474F"/><path d="M54.172 16.25a2.708 2.708 0 01-2.708-2.708V2.708a2.708 2.708 0 015.417 0v10.834a2.708 2.708 0 01-2.709 2.708zm32.5 0a2.708 2.708 0 01-2.708-2.708v-2.708l-3.25 4.333a2.806 2.806 0 01-4.334 0l-3.25-4.333v2.708a2.709 2.709 0 01-5.417 0V2.708a2.708 2.708 0 014.875-1.625l5.959 7.941 5.958-7.94a2.708 2.708 0 014.875 1.624v10.834a2.708 2.708 0 01-2.708 2.708zm18.958 0h-8.125a2.708 2.708 0 01-2.708-2.708V2.708a2.708 2.708 0 015.417 0v8.125h5.416a2.709 2.709 0 110 5.417z" fill="#37474F"/><path d="M110.343 27.971a2.708 2.708 0 00-2.004-.888H21.672a2.708 2.708 0 00-2.708 2.963l8.125 86.666a2.709 2.709 0 001.955 2.351l37.916 10.834a2.795 2.795 0 001.609-.033l32.5-10.833a2.71 2.71 0 001.842-2.319l8.125-86.666a2.709 2.709 0 00-.693-2.075z" fill="#EA6767"/><path d="M67.714 108.333a2.702 2.702 0 01-.742-.108l-18.958-5.417a2.708 2.708 0 01-1.885-1.944L43.42 90.03a2.709 2.709 0 115.254-1.31l2.33 9.316 16.65 4.756 13.791-4.6 2.232-22.359H43.339a2.708 2.708 0 01-2.708-2.367l-2.709-21.667a2.708 2.708 0 012.708-3.05h51.46a2.709 2.709 0 010 5.417H43.697l2.03 16.25h40.945a2.708 2.708 0 012.709 2.98l-2.709 27.083a2.709 2.709 0 01-1.836 2.302l-16.25 5.417a2.777 2.777 0 01-.872.135z" fill="#FAFAFA"/></g><defs><clipPath id="clip0"><path fill="#fff" d="M0 0h130v130H0z"/></clipPath></defs></svg>