<svg width="128" height="128" fill="none" xmlns="http://www.w3.org/2000/svg"><path d="M27.758 20.42c-7.352 10.566-6.437 24.313-.82 35.54l.41.799.264.506.164.29.293.525c.174.307.353.612.536.919l.306.504c.203.326.41.65.622.973l.265.409c.293.437.592.872.9 1.3l.027.034.152.205c.267.368.542.732.82 1.093l.31.393c.249.313.502.623.759.934l.29.346c.345.406.698.812 1.057 1.208l.02.022.042.045c.35.383.71.758 1.075 1.133l.344.347c.282.284.569.563.858.84l.35.335c.388.364.778.722 1.177 1.07l.018.016.205.174c.35.305.708.605 1.068.902l.442.353c.294.235.59.468.89.696l.477.36c.33.244.663.483.999.718l.363.258.1.072c.319.22.646.43.97.642l.42.28c.5.315 1.008.628 1.52.93l.42.237c.377.217.756.43 1.14.639l.63.326.817.424.188.09.334.162c.427.204.858.405 1.293.599l.273.122c.498.218 1 .427 1.508.628l.368.144c.469.182.945.359 1.423.527l.179.062c.524.184 1.054.353 1.587.52l.383.114c.542.164 1.079.358 1.638.462 35.553 6.483 45.88-21.364 45.88-21.364-8.674 11.3-24.07 14.28-38.656 10.962-.553-.125-1.09-.298-1.628-.456l-.406-.124a44.793 44.793 0 01-1.568-.51l-.215-.077a49.537 49.537 0 01-1.382-.513l-.388-.152c-.501-.198-1-.405-1.492-.62l-.298-.133a55.398 55.398 0 01-1.26-.585l-.363-.175c-.327-.16-.65-.328-.974-.495l-.65-.341c-.394-.21-.781-.43-1.166-.654l-.394-.22a58.203 58.203 0 01-1.52-.931l-.41-.273a40.515 40.515 0 01-1.081-.72l-.35-.244a54.203 54.203 0 01-1.021-.738l-.453-.343c-.31-.237-.618-.476-.922-.721l-.411-.33c-.388-.318-.771-.64-1.15-.97l-.125-.104a54.797 54.797 0 01-1.208-1.098l-.34-.328a33.158 33.158 0 01-.868-.851l-.34-.34c-.362-.37-.717-.745-1.065-1.126l-.053-.057a41.973 41.973 0 01-1.08-1.23l-.283-.335a44.66 44.66 0 01-.777-.961l-.285-.355a52.469 52.469 0 01-.898-1.195c-8.098-11.047-11.008-26.283-4.535-38.795l-5.74 7.276zm22.82-8.901c-5.316 7.65-5.028 17.893-.88 25.983a33.747 33.747 0 002.35 3.925c.797 1.143 1.68 2.5 2.738 3.418.383.422.784.834 1.193 1.238l.314.31c.397.386.8.765 1.218 1.133l.05.043.012.012c.462.405.939.794 1.423 1.178l.323.252c.486.372.98.738 1.489 1.087l.043.033.68.447.322.213c.363.233.73.459 1.104.676l.156.092c.322.185.648.367.975.545l.347.18.682.354.103.047c.469.23.94.453 1.424.663l.314.13c.386.163.775.323 1.167.473l.5.184c.356.132.712.253 1.072.373l.484.155c.51.158 1.017.359 1.549.448 27.45 4.547 33.787-16.588 33.787-16.588-5.712 8.228-16.775 12.153-28.58 9.089a34.726 34.726 0 01-1.555-.45l-.467-.15a29 29 0 01-1.087-.374l-.491-.183a38.673 38.673 0 01-1.171-.473l-.315-.133a32.78 32.78 0 01-1.432-.666l-.718-.365-.414-.213c-.306-.166-.61-.338-.91-.514l-.216-.123a30.75 30.75 0 01-1.1-.672l-.332-.221-.712-.472a37.364 37.364 0 01-1.484-1.085l-.334-.264c-5.167-4.08-9.263-9.655-11.21-15.977-2.041-6.557-1.601-13.917 1.935-19.891l-4.346 6.133zM69.77 4.868c-3.134 4.612-3.442 10.34-1.267 15.435 2.293 5.407 6.992 9.648 12.477 11.66l.682.235.3.096c.323.102.644.22.978.282 15.157 2.929 19.268-7.777 20.362-9.354-3.601 5.185-9.653 6.43-17.08 4.627a18.837 18.837 0 01-1.795-.555 22.303 22.303 0 01-2.134-.886 22.19 22.19 0 01-3.741-2.282c-6.645-5.042-10.772-14.66-6.436-22.492" fill="#0868AC"/><path d="M66.359 96.295h-4.226a.556.556 0 00-.517.417l-1.5 6.94-1.5 6.94a.554.554 0 01-.516.417h-2.991c-2.96 0-2.617-2.047-2.011-4.851l.018-.085.066-.354.012-.066.135-.72.145-.771.154-.785.682-3.332.683-3.332a.336.336 0 00-.341-.419h-4.337a.55.55 0 00-.514.418l-.933 4.424-.932 4.425-.002.006-.086.412c-1.074 4.903-.79 9.58 5.048 9.727l.17.003h9.163a.554.554 0 00.516-.417l1.976-9.289 1.976-9.29c.049-.23-.103-.417-.338-.418zm-45.256-.049h-4.64a.562.562 0 00-.521.416l-.44 1.942-.44 1.942c-.051.229.098.416.333.416h4.676a.556.556 0 00.518-.417l.425-1.94.425-1.942c.049-.229-.101-.417-.336-.417zm-1.346 6.044H15.08a.563.563 0 00-.521.416l-.657 2.91-.656 2.909-.183.834-.631 2.97-.63 2.971a9.31 9.31 0 01-.225.821s-.874 2.6-2.343 2.57l-.184-.004-1.271-.023h-.001a.558.558 0 00-.524.407l-.485 2.039-.484 2.038c-.055.228.093.416.326.42.833.01 2.699.031 3.828.031 3.669 0 5.604-2.033 6.843-7.883l1.45-6.714 1.362-6.297c.049-.227-.103-.415-.337-.415zm86.117-1.574l-.194-.8-.191-.82-.097-.415c-.38-1.477-1.495-2.328-3.917-2.328l-3.77-.004-3.472-.005h-3.907a.552.552 0 00-.515.417l-.173.816-.204.964-.057.271-1.76 8.24-1.67 7.822c-.05.23-.065.512-.037.626.028.115.479.209.713.209h3.524c.235 0 .532-.042.66-.094s.317-.513.364-.742l.626-3.099.627-3.1v-.005l.085-.413.76-3.56.67-3.144a.555.555 0 01.516-.417l11.089-.005c.235.002.383-.185.33-.414zm14.275-7.24l-.854.003h-3.549a.904.904 0 00-.667.353l-7.849 11.498c-.132.194-.283.166-.335-.062l-.578-2.533a.562.562 0 00-.522-.416h-5.045c-.235 0-.374.184-.31.409l2.261 7.921c.064.226.069.596.011.824l-.985 3.833c-.059.228.085.413.32.413h4.987a.58.58 0 00.532-.413l.986-3.833a2.52 2.52 0 01.363-.755l12.742-16.91c.142-.189.065-.342-.169-.34l-1.339.008zm-40.086 9.919v-.004a.514.514 0 01-.5.441h-6.396c-.222 0-.334-.15-.301-.336l.006-.015-.004.002.003-.021.029-.109c.61-1.624 1.855-2.69 4.194-2.69 2.634-.001 3.148 1.285 2.969 2.732zm-1.877-7.384c-8.211 0-10.157 4.984-11.25 10.015-1.09 5.128-.997 9.921 7.5 9.921h1.03l.257-.001h.06l1.02-.003h.018c2.244-.009 4.495-.026 5.406-.033a.553.553 0 00.509-.42l.344-1.681.067-.327.41-2.006a.335.335 0 00-.341-.418h-7.64c-3.038 0-3.94-.807-3.607-3.181h12.21v.001l.008-.001a.503.503 0 00.445-.315l.029-.106-.001.001c1.813-6.839 1.293-11.445-6.474-11.446zm-38.81 7.358l-.116.409v.001l-.922 3.268-.922 3.267a.596.596 0 01-.543.411h-4.88c-3.702 0-4.604-2.896-3.702-7.166.9-4.368 2.668-7.083 6.312-7.358 4.98-.376 5.976 3.126 4.773 7.168zm3.348 7.105s2.3-5.588 2.823-8.814c.713-4.319-1.45-10.585-9.804-10.585-8.306 0-11.914 5.981-13.29 12.484-1.376 6.55.427 12.293 8.686 12.246l6.516-.024 6.089-.022a.59.59 0 00.534-.414l1.06-4.046c.06-.228-.083-.414-.318-.416l-1.017-.006-1.017-.006c-.2-.001-.313-.131-.29-.302l.028-.095zm41.12-3.741a.28.28 0 11-.56.001.28.28 0 01.56-.001z" fill="#131B28"/></svg>