<svg width="95" height="130" fill="none" xmlns="http://www.w3.org/2000/svg"><path d="M95 25.475H0l8.906 93.885L47.496 130l38.588-10.64L95 25.475z" fill="#E6A329"/><path d="M47.495 33.124v88.92l31.266-8.611 7.606-80.309H47.495z" fill="#F1BF22"/><path d="M72.37 44.642H24.295L20.948 79.79l.069-.219h40.84l-1.33 14.872-13.03 3.644-13.224-3.703-.792-9.001H21.48l1.712 17.985 24.305 6.708 24.317-6.708 3.348-35.303H31.818l.556-11.762h30.072l.45 6.74h12.105l-2.632-18.401z" fill="#fff"/><path d="M47.506 44.642h-23.21L20.948 79.79l.069-.219h26.488V68.105H33.508l.556-11.762h13.442V44.642zM33.508 85.389h-12.03l1.712 17.976 24.305 6.7V98.103l-13.223-3.712-.764-9.002z" fill="#EBEBEB"/><path d="M38.258 11.627H29.8v5.902h14.511V0h-6.046l-.007 11.627zM65.196.094H50.453V6.23c1.968 1.914 2.995 2.834 5.895 5.606h-5.895v5.596h14.742v-5.586l-5.89-5.606h5.896L65.196.094z" fill="#231F20"/></svg>