<svg width="130" height="137" fill="none" xmlns="http://www.w3.org/2000/svg"><g clip-path="url(#clip0)"><path d="M128.184 63.529c-.025.018-4.285 3.202-4.285 7.14 0 6.394-4.648 15.437-12.102 16.911-2.698 7.203-7.487 9.323-8.416 12.267-.878 2.777-3.66 6.996-17.628 11.563-7.57 2.477-16.103 4.205-20.751 4.205s-13.18-1.728-20.751-4.205c-13.968-4.567-16.75-8.786-17.628-11.563-.927-2.937-5.721-5.07-8.416-12.267-7.454-1.474-12.102-10.517-12.102-16.91 0-3.939-4.26-7.123-4.303-7.155C.157 62.39-.429 60.23.325 58.322c3.236-8.204 12.048-27.846 20.21-32.147 5.763-3.036 13.551-2.616 19.459-1.6 10.944-4.166 38.763-4.284 50.016 0 5.908-1.016 13.696-1.433 19.457 1.6 8.136 4.285 17.012 24.036 20.212 32.147.754 1.908.148 4.083-1.495 5.207z" fill="#A07765"/><path d="M113.744 74.95c0 18.11-9.071 20.803-10.363 24.897-.878 2.777-3.66 6.996-17.628 11.563-7.57 2.477-16.103 4.205-20.751 4.205s-13.18-1.728-20.751-4.205c-13.968-4.567-16.75-8.786-17.628-11.563C25.305 95.67 16.26 93.213 16.26 74.95c0-18.353 12.694-43.314 20.086-48.507 6.828-4.78 22.508-5 30.687-5 6.995 0 20.762.88 26.62 4.997 7.451 5.234 20.091 30.226 20.091 48.51z" fill="#FFDFBA"/><path d="M112.749 65.182c-1.929 9.122-8.387 12.293-9.368 15.402-.878 2.777-3.66 6.996-17.628 11.563-7.57 2.477-16.103 4.206-20.751 4.206s-13.18-1.728-20.751-4.206C30.283 87.58 27.5 83.361 26.623 80.584c-.995-3.151-7.441-6.289-9.368-15.402 2.942-15.422 12.446-34.07 19.09-38.739 9.957-6.97 48.038-6.517 57.308-.003 6.674 4.688 16.162 23.36 19.096 38.742z" fill="#FFEBD2"/><path d="M89.02 108.815c-.46 1.088-1.345 1.953-2.472 2.333-7.682 2.589-16.743 4.467-21.546 4.467-4.803 0-13.863-1.878-21.545-4.467-1.128-.38-2.014-1.245-2.473-2.333-4.78-9.79-10.72-26.85-3.224-34.75 5.567-5.883 10.215-12.722 18.575-13.918 2.343-.332 4.468 1.506 4.603 4.008.188.669 1.797 2.234 4.064 2.234 2.267 0 3.877-1.565 4.065-2.234.134-2.507 2.264-4.34 4.602-4.008 8.344 1.194 12.961 7.986 18.575 13.917 7.482 7.885 1.538 24.999-3.224 34.751z" fill="#A07765"/><path d="M77.188 64.248c0 5.867-6.035 10.701-12.186 10.701-6.238 0-12.186-4.91-12.186-10.7 0-4.14 3.202-8.562 12.186-8.562s12.186 4.422 12.186 8.561z" fill="#999"/><path d="M37.584 53.547c-3.944 0-7.112 3.367-7.112 7.49 0 4.138 3.183 7.492 7.108 7.492 3.945 0 7.113-3.367 7.113-7.491 0-4.137-3.183-7.491-7.108-7.491zm54.831 14.982c3.945 0 7.113-3.367 7.113-7.491 0-4.137-3.183-7.491-7.109-7.491-3.944 0-7.112 3.367-7.112 7.49 0 4.138 3.183 7.492 7.108 7.492z" fill="#000"/><path d="M129.679 58.321c-3.242-8.207-12.045-27.843-20.212-32.146-5.625-2.963-13.252-2.666-19.458-1.6-11.174-4.255-39.023-4.187-50.018 0-6.208-1.067-13.834-1.362-19.458 1.6C12.397 30.462 3.53 50.196.32 58.32c-.724 1.832-.214 4.038 1.496 5.208.023.017 4.284 3.202 4.284 7.14 0 6.395 4.65 15.436 12.101 16.91 2.696 7.194 7.488 9.332 8.417 12.268.878 2.776 3.661 6.995 17.628 11.563 13.432 4.393 21.255 4.205 20.754 4.205 5.72 0 15.086-2.352 20.753-4.205 13.967-4.568 16.75-8.787 17.628-11.563.928-2.936 5.72-5.073 8.417-12.268 7.451-1.474 12.101-10.515 12.101-16.91 0-3.938 4.261-7.123 4.284-7.14 1.715-1.173 2.217-3.382 1.495-5.208zM14.229 70.67c0-5.358-2.932-9.481-5.227-11.888 2.385-5.573 10-22.226 15.167-24.948 1.65-.869 3.961-1.348 6.733-1.432-7.453 10.641-15.013 29.505-14.624 44.02-1.253-1.846-2.049-4.199-2.049-5.752zM68.7 64.748c-1.863 2.173-5.529 2.181-7.4 0 1.893-.669 5.505-.67 7.4 0zm-21.155 38.769c-3.827-8.25-7.133-20.143-4.042-23.4 4.277-4.507 7.335-8.721 11.054-10.575 1.544 2.243 3.871 3.894 6.38 4.737v5.502c-4.93 1.373-9.1 5.404-11.51 9.893a4.414 4.414 0 00-.704 2.401c0 4.492 5.788 5.953 7.698 1.898.031.016.028.007.013.037l.013-.026c.028.016 3.016-6.191 8.553-6.193 5.451.002 8.532 6.157 8.562 6.22l-.011-.025.002-.002.013.026c-.015-.03-.018-.02.013-.037 1.91 4.055 7.699 2.594 7.699-1.898 0-.891-.262-1.716-.705-2.4-2.438-4.54-6.606-8.528-11.51-9.894v-5.502c2.508-.843 4.835-2.493 6.38-4.737 3.719 1.853 6.776 6.066 11.054 10.575 3.091 3.257-.214 15.15-4.041 23.4-7.358 2.321-14.338 3.536-17.456 3.537-3.118-.001-10.098-1.215-17.455-3.537zm66.178-27.096c.392-14.634-7.285-33.542-14.624-44.02 2.771.084 5.083.563 6.733 1.432 5.166 2.722 12.781 19.376 15.167 24.949-2.295 2.406-5.227 6.53-5.227 11.887-.001 1.553-.797 3.906-2.049 5.752zM87.675 32.79c.196.108.4.203.61.277 5.02 2.485 17.332 25.5 17.332 41.884 0 15.65-7.174 13.64-9.917 22.097-.23.375-1.035 1.131-2.734 2.125 2.75-8.088 5.043-19.034-.72-25.108-4.931-5.197-9.118-11.175-15.894-13.305-2.99-5.777-12.209-5.071-11.352-5.071-4.296 0-9.284 1.076-11.351 5.071-6.775 2.13-10.964 8.108-15.894 13.305-5.763 6.073-3.471 17.018-.72 25.108-1.7-.994-2.505-1.75-2.735-2.124-2.74-8.45-9.916-6.458-9.916-22.098 0-16.49 12.372-39.43 17.33-41.884a4 4 0 00.611-.277c8.987-3.758 36.474-3.712 45.35 0z" fill="#000"/></g><defs><clipPath id="clip0"><path fill="#fff" d="M0 0h130v137H0z"/></clipPath></defs></svg>