<svg width="130" height="130" fill="none" xmlns="http://www.w3.org/2000/svg"><path d="M107.151 71.549c-4.087.018-7.626 1.003-10.581 2.463-1.077-2.172-2.19-4.069-2.373-5.492-.218-1.66-.456-2.645-.2-4.615.256-1.971 1.404-4.763 1.386-4.963-.017-.2-.255-1.204-2.608-1.223-2.354-.018-4.379.456-4.616 1.077-.238.62-.693 2.025-.967 3.485-.42 2.134-4.707 9.76-7.134 13.738-.803-1.55-1.478-2.92-1.624-4.014-.219-1.66-.456-2.646-.2-4.616.255-1.97 1.404-4.762 1.386-4.962-.018-.201-.255-1.205-2.609-1.223-2.353-.018-4.378.456-4.616 1.077-.237.62-.492 2.08-.966 3.485-.475 1.404-6.185 14.102-7.681 17.404a90.626 90.626 0 01-1.898 3.941c-.072.146-.127.237-.164.31.055-.09.092-.182.092-.145a65.185 65.185 0 01-.64 1.222v.018c-.31.584-.656 1.112-.82 1.112-.11 0-.347-1.532.055-3.63.857-4.415 2.882-11.274 2.864-11.512-.019-.128.383-1.313-1.332-1.952-1.66-.602-2.263.401-2.408.401-.146 0-.256.366-.256.366s1.843-7.736-3.54-7.736c-3.356 0-8.026 3.686-10.325 7.024-1.441.785-4.561 2.481-7.845 4.287-1.26.694-2.555 1.405-3.777 2.08-.091-.091-.164-.183-.255-.274-6.532-6.969-18.591-11.895-18.08-21.254.182-3.412 1.368-12.37 23.188-23.243 17.88-8.904 32.183-6.459 34.647-1.022 3.538 7.754-7.645 22.185-26.218 24.265-7.079.784-10.8-1.952-11.73-2.974-.968-1.076-1.114-1.131-1.479-.93-.602.328-.219 1.277 0 1.842.548 1.441 2.828 3.996 6.714 5.273 3.412 1.113 11.713 1.733 21.747-2.153 11.275-4.342 20.05-16.438 17.478-26.564-2.627-10.29-19.685-13.665-35.831-7.936-9.615 3.412-20.014 8.776-27.495 15.763C7.556 48.069 6.133 55.31 6.716 58.34 8.796 69.086 23.61 76.092 29.54 81.273c-.292.164-.566.31-.821.456-2.974 1.478-14.267 7.389-17.095 13.63-3.192 7.078.529 12.149 2.974 12.843 7.626 2.116 15.434-1.697 19.63-7.955 4.197-6.257 3.686-14.43 1.752-18.153-.018-.054-.055-.09-.073-.146a263.1 263.1 0 012.335-1.368 157.118 157.118 0 014.288-2.426c-.73 1.97-1.26 4.341-1.533 7.772-.328 4.013 1.332 9.213 3.485 11.256.948.894 2.098.913 2.81.913 2.517 0 3.648-2.08 4.907-4.562 1.55-3.029 2.919-6.55 2.919-6.55s-1.715 9.524 2.974 9.524c1.715 0 3.43-2.207 4.196-3.339v.018s.037-.072.128-.218c.182-.274.273-.438.273-.438v-.055c.693-1.186 2.208-3.904 4.488-8.392 2.956-5.802 5.784-13.046 5.784-13.046s.255 1.77 1.131 4.708c.51 1.733 1.587 3.63 2.445 5.473a87.79 87.79 0 01-1.113 1.496s0 .018.017.037a57.263 57.263 0 01-1.805 2.28c-2.336 2.774-5.109 5.948-5.474 6.86-.438 1.077-.328 1.88.511 2.5.62.475 1.715.547 2.864.456 2.099-.146 3.576-.656 4.288-.986 1.13-.4 2.445-1.04 3.685-1.933 2.28-1.678 3.668-4.087 3.54-7.261-.073-1.752-.64-3.503-1.332-5.145.2-.292.42-.603.62-.912 3.613-5.273 6.404-11.056 6.404-11.056s.255 1.77 1.131 4.707c.438 1.478 1.295 3.101 2.08 4.688-3.394 2.755-5.492 5.948-6.222 8.046-1.35 3.886-.291 5.637 1.697 6.04.894.182 2.171-.238 3.12-.64 1.186-.401 2.609-1.04 3.94-2.025 2.281-1.678 4.49-4.032 4.343-7.225-.055-1.44-.456-2.882-.985-4.269 2.864-1.203 6.586-1.86 11.33-1.313 10.162 1.186 12.15 7.534 11.767 10.18-.383 2.664-2.517 4.123-3.229 4.561-.712.438-.931.602-.875.93.09.475.419.457 1.021.347.839-.146 5.327-2.153 5.528-7.06.292-6.204-5.673-13.027-16.237-12.972zm-78.323 26.4c-3.356 3.666-8.063 5.053-10.088 3.885-2.171-1.258-1.314-6.659 2.827-10.563 2.518-2.372 5.766-4.56 7.918-5.91.493-.293 1.205-.73 2.08-1.26.146-.09.22-.127.22-.127.163-.11.346-.201.528-.31 1.514 5.546.055 10.435-3.485 14.284zm24.52-16.676c-1.167 2.864-3.63 10.162-5.126 9.779-1.277-.329-2.062-5.893-.255-11.366.912-2.755 2.846-6.039 3.995-7.316 1.843-2.062 3.868-2.719 4.343-1.897.638 1.076-2.227 9.012-2.956 10.8zm20.252 9.67c-.493.255-.949.42-1.168.291-.164-.09.201-.438.201-.438s2.535-2.718 3.54-3.959c.583-.73 1.258-1.587 1.988-2.535 0 .09.018.182.018.291-.018 3.266-3.156 5.474-4.58 6.35zm15.617-3.558c-.365-.255-.31-1.113.912-3.777.475-1.04 1.57-2.791 3.466-4.47.22.694.347 1.35.347 1.97-.018 4.106-2.955 5.638-4.725 6.277z" fill="#CF649A"/></svg>