<svg width="211" height="68" fill="none" xmlns="http://www.w3.org/2000/svg"><path d="M178.513 33.995a1.382 1.382 0 11-2.763 0 1.382 1.382 0 012.763 0zm10.368-1.382a1.385 1.385 0 00-1.356 1.652 1.383 1.383 0 002.739-.27 1.388 1.388 0 00-1.383-1.382zm11.751 2.765a1.383 1.383 0 100-2.765 1.383 1.383 0 000 2.765zM177.13 56.114a1.385 1.385 0 00-1.277.854 1.382 1.382 0 101.277-.854zm11.751 0a1.385 1.385 0 00-1.356 1.653 1.383 1.383 0 002.739-.27 1.388 1.388 0 00-1.383-1.383zm11.751 0a1.383 1.383 0 100 2.766 1.383 1.383 0 000-2.766zm-23.502-11.75a1.385 1.385 0 00-1.277.853 1.382 1.382 0 101.277-.853zm11.751 0a1.385 1.385 0 00-1.356 1.652 1.384 1.384 0 002.739-.27 1.388 1.388 0 00-1.383-1.382zm11.751 0a1.383 1.383 0 100 2.765 1.383 1.383 0 000-2.765z" fill="#000"/><path d="M154.885 33.995a1.382 1.382 0 11-2.763 0 1.382 1.382 0 012.763 0zm10.368-1.382a1.385 1.385 0 00-1.356 1.652 1.383 1.383 0 002.739-.27 1.383 1.383 0 00-1.383-1.382zm11.751 2.765a1.383 1.383 0 100-2.765 1.383 1.383 0 000 2.765zm-23.501 20.736a1.38 1.38 0 00-1.356 1.653 1.382 1.382 0 101.356-1.653zm11.75 0a1.385 1.385 0 00-1.356 1.653 1.383 1.383 0 002.739-.27 1.383 1.383 0 00-1.383-1.383zm11.751 0a1.383 1.383 0 100 2.766 1.383 1.383 0 000-2.766zm-23.501-11.75a1.38 1.38 0 00-1.356 1.652 1.382 1.382 0 101.356-1.652zm11.75 0a1.385 1.385 0 00-1.356 1.652 1.384 1.384 0 002.739-.27 1.383 1.383 0 00-1.383-1.382zm11.751 0a1.383 1.383 0 100 2.765 1.383 1.383 0 000-2.765z" fill="#000"/><path d="M178.513 10.368a1.382 1.382 0 11-2.763 0 1.382 1.382 0 012.763 0zm10.368-1.382a1.385 1.385 0 00-1.356 1.652 1.383 1.383 0 101.356-1.652zm11.751 2.765a1.383 1.383 0 100-2.765 1.383 1.383 0 000 2.765zM177.13 32.487a1.385 1.385 0 00-1.277.854 1.382 1.382 0 101.277-.854zm11.751 0a1.385 1.385 0 00-1.356 1.652 1.383 1.383 0 101.356-1.652zm11.751 0a1.383 1.383 0 100 2.765 1.383 1.383 0 000-2.765zm-23.502-11.75a1.385 1.385 0 00-1.277.853 1.382 1.382 0 101.277-.853zm11.751 0a1.385 1.385 0 00-1.356 1.652 1.384 1.384 0 002.739-.27 1.388 1.388 0 00-1.383-1.382zm11.751 0a1.383 1.383 0 100 2.765 1.383 1.383 0 000-2.765z" fill="#000"/><path d="M154.885 10.368a1.382 1.382 0 11-2.764 0 1.382 1.382 0 012.764 0zm10.368-1.382a1.385 1.385 0 00-1.356 1.652 1.384 1.384 0 002.739-.27 1.383 1.383 0 00-1.383-1.382zm11.751 2.765a1.383 1.383 0 100-2.765 1.383 1.383 0 000 2.765zm-23.501 20.737a1.38 1.38 0 00-1.356 1.652 1.382 1.382 0 101.356-1.652zm11.75 0a1.385 1.385 0 00-1.356 1.652 1.384 1.384 0 002.739-.27 1.383 1.383 0 00-1.383-1.382zm11.751 0a1.383 1.383 0 100 2.765 1.383 1.383 0 000-2.765zm-23.501-11.751a1.38 1.38 0 00-1.356 1.652 1.382 1.382 0 101.356-1.652zm11.75 0a1.385 1.385 0 00-1.356 1.652 1.383 1.383 0 002.739-.27 1.384 1.384 0 00-1.383-1.382zm11.751 0a1.383 1.383 0 100 2.765 1.383 1.383 0 000-2.765z" fill="#000"/><path d="M131.033 33.995c0 .274-.083.541-.237.769a1.406 1.406 0 01-.632.509 1.431 1.431 0 01-1.534-.3 1.371 1.371 0 01-.305-1.507 1.39 1.39 0 01.518-.62 1.428 1.428 0 011.777.173c.264.259.412.61.413.977zm10.557-1.382c-.279 0-.551.081-.782.233a1.367 1.367 0 00-.214 2.127 1.431 1.431 0 001.534.3 1.4 1.4 0 00.632-.51 1.362 1.362 0 00-.175-1.744 1.424 1.424 0 00-.995-.406zm11.964 2.765c.279 0 .551-.081.782-.233a1.366 1.366 0 00.213-2.127 1.41 1.41 0 00-.72-.378 1.434 1.434 0 00-.814.078 1.398 1.398 0 00-.631.51 1.363 1.363 0 00.175 1.744c.264.26.622.405.995.406zm-23.929 20.736c-.278 0-.55.082-.782.233a1.387 1.387 0 00-.518.62 1.359 1.359 0 00.305 1.508 1.431 1.431 0 001.534.3c.257-.105.477-.283.632-.51a1.37 1.37 0 00.237-.768 1.374 1.374 0 00-.413-.977 1.422 1.422 0 00-.995-.406zm11.965 0a1.43 1.43 0 00-.782.233 1.367 1.367 0 00-.214 2.127 1.431 1.431 0 001.534.3 1.4 1.4 0 00.632-.509 1.362 1.362 0 00-.175-1.745 1.424 1.424 0 00-.995-.406zm11.964 0c-.278 0-.55.082-.782.233a1.387 1.387 0 00-.518.62 1.371 1.371 0 00.305 1.507 1.431 1.431 0 001.534.3c.257-.104.477-.282.632-.509a1.37 1.37 0 00.237-.768 1.374 1.374 0 00-.413-.977 1.424 1.424 0 00-.995-.406zm-23.929-11.75c-.278 0-.55.08-.782.233a1.387 1.387 0 00-.518.62 1.358 1.358 0 00.305 1.507 1.43 1.43 0 001.534.3c.257-.105.477-.282.632-.51a1.37 1.37 0 00.237-.768 1.374 1.374 0 00-.413-.977 1.421 1.421 0 00-.995-.405zm11.965 0c-.279 0-.551.08-.782.233a1.366 1.366 0 00-.214 2.127 1.43 1.43 0 001.534.3 1.4 1.4 0 00.632-.51 1.362 1.362 0 00-.175-1.745 1.423 1.423 0 00-.995-.405zm11.964 0c-.278 0-.55.08-.782.233a1.387 1.387 0 00-.518.62 1.372 1.372 0 00.305 1.507 1.43 1.43 0 001.534.3c.257-.105.477-.282.632-.51a1.37 1.37 0 00.237-.768 1.374 1.374 0 00-.413-.977 1.423 1.423 0 00-.995-.405z" fill="#000" fill-opacity=".56"/><path d="M106.976 33.995c0 .274-.082.541-.237.769a1.4 1.4 0 01-.632.509 1.431 1.431 0 01-1.534-.3 1.367 1.367 0 01.214-2.127 1.423 1.423 0 011.777.172c.263.26.412.611.412.977zm10.557-1.382c-.278 0-.55.081-.782.233a1.387 1.387 0 00-.518.62 1.371 1.371 0 00.305 1.507 1.431 1.431 0 001.534.3c.257-.105.477-.282.631-.51a1.363 1.363 0 00-.175-1.744 1.424 1.424 0 00-.995-.406zm11.965 2.765c.278 0 .55-.081.782-.233a1.366 1.366 0 00.213-2.127 1.43 1.43 0 00-1.534-.3 1.406 1.406 0 00-.632.51 1.363 1.363 0 00.176 1.744c.264.26.621.405.995.406zm-23.929 20.736a1.43 1.43 0 00-.782.233 1.367 1.367 0 00-.214 2.127 1.431 1.431 0 001.534.3 1.4 1.4 0 00.632-.509 1.362 1.362 0 00-.175-1.745 1.424 1.424 0 00-.995-.406zm11.964 0c-.278 0-.55.082-.782.233a1.387 1.387 0 00-.518.62 1.371 1.371 0 00.305 1.507 1.431 1.431 0 001.534.3c.257-.104.477-.282.631-.509a1.363 1.363 0 00-.175-1.745 1.424 1.424 0 00-.995-.406zm11.965 0a1.43 1.43 0 00-.782.233 1.367 1.367 0 00-.214 2.127 1.431 1.431 0 001.534.3c.257-.104.477-.282.632-.509a1.362 1.362 0 00-.176-1.745 1.421 1.421 0 00-.994-.406zm-23.929-11.75c-.279 0-.551.08-.782.233a1.366 1.366 0 00-.214 2.127 1.43 1.43 0 001.534.3 1.4 1.4 0 00.632-.51 1.362 1.362 0 00-.175-1.745 1.423 1.423 0 00-.995-.405zm11.964 0c-.278 0-.55.08-.782.233a1.387 1.387 0 00-.518.62 1.372 1.372 0 00.305 1.507 1.43 1.43 0 001.534.3c.257-.105.477-.282.631-.51a1.363 1.363 0 00-.175-1.745 1.423 1.423 0 00-.995-.405zm11.965 0c-.279 0-.551.08-.782.233a1.366 1.366 0 00-.214 2.127 1.43 1.43 0 001.534.3c.257-.105.477-.282.632-.51a1.362 1.362 0 00-.176-1.745 1.42 1.42 0 00-.994-.405z" fill="#000" fill-opacity=".56"/><path d="M131.033 10.368c0 .274-.083.541-.237.768a1.406 1.406 0 01-.632.51 1.431 1.431 0 01-1.534-.3 1.371 1.371 0 01-.305-1.507 1.39 1.39 0 01.518-.62 1.428 1.428 0 011.777.172c.264.26.412.61.413.977zm10.557-1.382c-.279 0-.551.08-.782.233a1.366 1.366 0 00-.214 2.127 1.431 1.431 0 001.534.3 1.4 1.4 0 00.632-.51 1.362 1.362 0 00-.175-1.745 1.423 1.423 0 00-.995-.405zm11.964 2.765c.279 0 .551-.081.782-.233a1.366 1.366 0 00.213-2.127 1.41 1.41 0 00-.72-.379 1.435 1.435 0 00-.814.08 1.398 1.398 0 00-.631.508 1.362 1.362 0 00.175 1.745c.264.26.622.405.995.406zm-23.929 20.736c-.278 0-.55.081-.782.233a1.387 1.387 0 00-.518.62 1.359 1.359 0 00.305 1.507 1.431 1.431 0 001.534.3c.257-.105.477-.282.632-.51a1.37 1.37 0 00.237-.767 1.374 1.374 0 00-.413-.977 1.422 1.422 0 00-.995-.406zm11.965 0c-.279 0-.551.081-.782.233a1.367 1.367 0 00-.214 2.127 1.431 1.431 0 001.534.3 1.4 1.4 0 00.632-.51 1.362 1.362 0 00-.175-1.744 1.424 1.424 0 00-.995-.406zm11.964 0c-.278 0-.55.081-.782.233a1.387 1.387 0 00-.518.62 1.371 1.371 0 00.305 1.507 1.431 1.431 0 001.534.3c.257-.105.477-.282.632-.51a1.37 1.37 0 00.237-.767 1.374 1.374 0 00-.413-.977 1.424 1.424 0 00-.995-.406zm-23.929-11.75c-.278 0-.55.08-.782.233a1.387 1.387 0 00-.518.62 1.358 1.358 0 00.305 1.507 1.43 1.43 0 001.534.3c.257-.105.477-.283.632-.51a1.37 1.37 0 00.237-.768 1.374 1.374 0 00-.413-.977 1.421 1.421 0 00-.995-.405zm11.965 0c-.279 0-.551.08-.782.233a1.366 1.366 0 00-.214 2.127 1.43 1.43 0 001.534.3 1.4 1.4 0 00.632-.51 1.362 1.362 0 00-.175-1.745 1.423 1.423 0 00-.995-.405zm11.964 0c-.278 0-.55.08-.782.233a1.387 1.387 0 00-.518.62 1.372 1.372 0 00.305 1.507 1.43 1.43 0 001.534.3c.257-.105.477-.283.632-.51a1.37 1.37 0 00.237-.768 1.374 1.374 0 00-.413-.977 1.423 1.423 0 00-.995-.405z" fill="#000" fill-opacity=".56"/><path d="M106.976 10.368c0 .274-.082.541-.237.768a1.4 1.4 0 01-.632.51 1.431 1.431 0 01-1.534-.3 1.366 1.366 0 01.214-2.127 1.423 1.423 0 011.777.172c.263.26.412.61.412.977zm10.557-1.382c-.278 0-.55.08-.782.233a1.387 1.387 0 00-.518.62 1.371 1.371 0 00.305 1.507 1.431 1.431 0 001.534.3c.257-.105.477-.282.631-.51a1.363 1.363 0 00-.175-1.745 1.423 1.423 0 00-.995-.405zm11.965 2.765c.278 0 .55-.081.782-.233a1.366 1.366 0 00.213-2.127 1.43 1.43 0 00-1.534-.3 1.406 1.406 0 00-.632.51 1.362 1.362 0 00.176 1.744c.264.26.621.405.995.406zm-23.929 20.736c-.279 0-.551.081-.782.233a1.367 1.367 0 00-.214 2.127 1.431 1.431 0 001.534.3 1.4 1.4 0 00.632-.51 1.362 1.362 0 00-.175-1.744 1.424 1.424 0 00-.995-.406zm11.964 0c-.278 0-.55.081-.782.233a1.387 1.387 0 00-.518.62 1.371 1.371 0 00.305 1.507 1.431 1.431 0 001.534.3c.257-.105.477-.282.631-.51a1.363 1.363 0 00-.175-1.744 1.424 1.424 0 00-.995-.406zm11.965 0c-.279 0-.551.081-.782.233a1.367 1.367 0 00-.214 2.127 1.431 1.431 0 001.534.3c.257-.105.477-.282.632-.51a1.362 1.362 0 00-.176-1.744 1.421 1.421 0 00-.994-.406zm-23.929-11.75c-.279 0-.551.08-.782.233a1.366 1.366 0 00-.214 2.127 1.43 1.43 0 001.534.3 1.4 1.4 0 00.632-.51 1.362 1.362 0 00-.175-1.745 1.423 1.423 0 00-.995-.405zm11.964 0c-.278 0-.55.08-.782.233a1.387 1.387 0 00-.518.62 1.372 1.372 0 00.305 1.507 1.43 1.43 0 001.534.3c.257-.105.477-.283.631-.51a1.363 1.363 0 00-.175-1.745 1.423 1.423 0 00-.995-.405zm11.965 0c-.279 0-.551.08-.782.233a1.366 1.366 0 00-.214 2.127 1.43 1.43 0 001.534.3c.257-.105.477-.283.632-.51a1.362 1.362 0 00-.176-1.745 1.42 1.42 0 00-.994-.405z" fill="#000" fill-opacity=".56"/><path d="M82.91 33.995c0 .274-.083.541-.237.769a1.402 1.402 0 01-.632.509 1.432 1.432 0 01-1.534-.3 1.36 1.36 0 01-.305-1.507 1.39 1.39 0 01.518-.62 1.426 1.426 0 011.777.173c.264.259.412.61.413.977zm10.557-1.382c-.279 0-.55.081-.782.233a1.388 1.388 0 00-.519.62 1.36 1.36 0 00.305 1.507 1.432 1.432 0 001.534.3 1.4 1.4 0 00.632-.51 1.365 1.365 0 00-.175-1.744 1.423 1.423 0 00-.995-.406zm11.964 2.765c.278 0 .551-.081.782-.233a1.366 1.366 0 00.213-2.127 1.41 1.41 0 00-.72-.378 1.434 1.434 0 00-.814.078 1.398 1.398 0 00-.631.51 1.363 1.363 0 00.175 1.744c.264.26.622.405.995.406zM81.502 56.114c-.278 0-.55.082-.782.233a1.388 1.388 0 00-.518.62 1.36 1.36 0 00.305 1.508 1.432 1.432 0 001.534.3c.257-.105.477-.283.632-.51a1.365 1.365 0 00-.176-1.745 1.423 1.423 0 00-.995-.406zm11.965 0c-.279 0-.55.082-.782.233a1.388 1.388 0 00-.519.62 1.36 1.36 0 00.305 1.508 1.432 1.432 0 001.534.3c.258-.105.477-.283.632-.51a1.365 1.365 0 00-.175-1.745 1.423 1.423 0 00-.995-.406zm11.964 0c-.278 0-.55.082-.782.233a1.387 1.387 0 00-.518.62 1.371 1.371 0 00.305 1.507c.197.194.447.325.72.379.274.053.557.026.814-.079.257-.104.477-.282.631-.509a1.363 1.363 0 00-.175-1.745 1.424 1.424 0 00-.995-.406zm-23.929-11.75c-.278 0-.55.08-.782.233a1.388 1.388 0 00-.518.62 1.359 1.359 0 00.305 1.507 1.43 1.43 0 001.534.3c.257-.105.477-.282.632-.51a1.366 1.366 0 00-.176-1.745 1.422 1.422 0 00-.995-.405zm11.965 0c-.279 0-.55.08-.782.233a1.388 1.388 0 00-.519.62 1.359 1.359 0 00.305 1.507 1.43 1.43 0 001.534.3 1.4 1.4 0 00.632-.51 1.366 1.366 0 00-.175-1.745 1.422 1.422 0 00-.995-.405zm11.964 0c-.278 0-.55.08-.782.233a1.387 1.387 0 00-.518.62 1.372 1.372 0 00.305 1.507 1.432 1.432 0 001.534.3c.257-.105.477-.282.631-.51a1.363 1.363 0 00-.175-1.745 1.423 1.423 0 00-.995-.405z" fill="#000" fill-opacity=".17"/><path d="M58.853 33.995c0 .274-.082.541-.237.769a1.402 1.402 0 01-.632.509 1.432 1.432 0 01-1.534-.3 1.36 1.36 0 01-.305-1.507c.107-.252.287-.468.519-.62a1.426 1.426 0 011.776.173c.264.259.413.61.413.977zm10.557-1.382c-.278 0-.55.081-.782.233a1.389 1.389 0 00-.518.62 1.36 1.36 0 00.305 1.507 1.432 1.432 0 001.534.3c.257-.105.477-.282.631-.51a1.364 1.364 0 00-.175-1.744 1.423 1.423 0 00-.995-.406zm11.965 2.765c.278 0 .55-.081.781-.233.232-.152.412-.368.519-.62a1.36 1.36 0 00-.305-1.507 1.431 1.431 0 00-1.534-.3 1.403 1.403 0 00-.632.51 1.365 1.365 0 00.176 1.744c.264.26.621.405.995.406zm-23.93 20.736c-.278 0-.55.082-.781.233a1.389 1.389 0 00-.519.62 1.36 1.36 0 00.305 1.508 1.432 1.432 0 001.534.3c.258-.105.477-.283.632-.51a1.364 1.364 0 00-.175-1.745 1.423 1.423 0 00-.995-.406zm11.965 0c-.278 0-.55.082-.782.233a1.389 1.389 0 00-.518.62 1.36 1.36 0 00.305 1.508 1.432 1.432 0 001.534.3c.257-.105.477-.283.631-.51a1.364 1.364 0 00-.175-1.745 1.423 1.423 0 00-.995-.406zm11.965 0a1.43 1.43 0 00-.782.233 1.389 1.389 0 00-.519.62 1.36 1.36 0 00.305 1.508 1.432 1.432 0 001.534.3c.257-.105.477-.283.632-.51a1.364 1.364 0 00-.176-1.745 1.423 1.423 0 00-.995-.406zm-23.93-11.75c-.278 0-.55.08-.781.233a1.389 1.389 0 00-.519.62 1.36 1.36 0 00.305 1.507 1.43 1.43 0 001.534.3 1.4 1.4 0 00.632-.51 1.365 1.365 0 00-.175-1.745 1.422 1.422 0 00-.995-.405zm11.965 0c-.278 0-.55.08-.782.233a1.389 1.389 0 00-.518.62 1.36 1.36 0 00.305 1.507 1.43 1.43 0 001.534.3c.257-.105.477-.282.631-.51a1.365 1.365 0 00-.175-1.745 1.422 1.422 0 00-.995-.405zm11.965 0c-.279 0-.551.08-.782.233a1.389 1.389 0 00-.519.62 1.36 1.36 0 00.305 1.507 1.43 1.43 0 001.534.3c.257-.105.477-.282.632-.51a1.365 1.365 0 00-.176-1.745 1.422 1.422 0 00-.995-.405z" fill="#000" fill-opacity=".17"/><path d="M82.91 10.368c0 .274-.083.541-.237.768a1.402 1.402 0 01-.632.51 1.432 1.432 0 01-1.534-.3 1.36 1.36 0 01-.305-1.507 1.39 1.39 0 01.518-.62 1.426 1.426 0 011.777.172c.264.26.412.61.413.977zm10.557-1.382c-.279 0-.55.08-.782.233a1.388 1.388 0 00-.519.62 1.36 1.36 0 00.305 1.507 1.432 1.432 0 001.534.3 1.4 1.4 0 00.632-.51 1.365 1.365 0 00-.175-1.745 1.422 1.422 0 00-.995-.405zm11.964 2.765c.278 0 .551-.081.782-.233a1.366 1.366 0 00.213-2.127 1.41 1.41 0 00-.72-.379 1.435 1.435 0 00-.814.08 1.398 1.398 0 00-.631.508 1.362 1.362 0 00.175 1.745c.264.26.622.405.995.406zM81.502 32.487c-.278 0-.55.081-.782.233a1.388 1.388 0 00-.518.62 1.36 1.36 0 00.305 1.507 1.42 1.42 0 001.534.3c.257-.105.477-.282.632-.51a1.365 1.365 0 00-.176-1.744 1.423 1.423 0 00-.995-.406zm11.965 0c-.279 0-.55.081-.782.233a1.388 1.388 0 00-.519.62 1.36 1.36 0 00.305 1.507 1.432 1.432 0 001.534.3 1.4 1.4 0 00.632-.51 1.365 1.365 0 00-.175-1.744 1.423 1.423 0 00-.995-.406zm11.964 0c-.278 0-.55.081-.782.233a1.387 1.387 0 00-.518.62 1.371 1.371 0 00.305 1.507c.197.194.447.325.72.379.274.053.557.026.814-.079.257-.105.477-.282.631-.51a1.363 1.363 0 00-.175-1.744 1.424 1.424 0 00-.995-.406zm-23.929-11.75c-.278 0-.55.08-.782.233a1.388 1.388 0 00-.518.62 1.359 1.359 0 00.305 1.507 1.43 1.43 0 001.534.3c.257-.105.477-.283.632-.51a1.366 1.366 0 00-.176-1.745 1.422 1.422 0 00-.995-.405zm11.965 0c-.279 0-.55.08-.782.233a1.388 1.388 0 00-.519.62 1.359 1.359 0 00.305 1.507 1.43 1.43 0 001.534.3c.258-.105.477-.283.632-.51a1.366 1.366 0 00-.175-1.745 1.422 1.422 0 00-.995-.405zm11.964 0c-.278 0-.55.08-.782.233a1.387 1.387 0 00-.518.62 1.372 1.372 0 00.305 1.507 1.432 1.432 0 001.534.3c.257-.105.477-.283.631-.51a1.363 1.363 0 00-.175-1.745 1.423 1.423 0 00-.995-.405z" fill="#000" fill-opacity=".17"/><path d="M58.854 10.368c0 .274-.082.541-.237.769a1.403 1.403 0 01-.632.509 1.431 1.431 0 01-1.534-.3 1.36 1.36 0 01-.305-1.507c.107-.252.287-.468.519-.62a1.426 1.426 0 011.776.173c.264.259.413.61.413.976zm10.557-1.382c-.278 0-.55.081-.782.233a1.388 1.388 0 00-.518.62 1.36 1.36 0 00.305 1.507 1.431 1.431 0 001.534.3c.257-.105.477-.282.631-.51a1.365 1.365 0 00-.175-1.744 1.422 1.422 0 00-.995-.406zm11.964 2.765c.279 0 .551-.081.782-.233.232-.152.412-.368.519-.62a1.36 1.36 0 00-.305-1.507 1.431 1.431 0 00-1.534-.3 1.402 1.402 0 00-.632.51 1.365 1.365 0 00.176 1.745c.263.259.621.405.994.405zM57.447 32.488c-.279 0-.55.08-.782.233a1.388 1.388 0 00-.519.62 1.36 1.36 0 00.305 1.507 1.43 1.43 0 001.534.3c.258-.105.477-.283.632-.51a1.365 1.365 0 00-.176-1.745 1.422 1.422 0 00-.994-.405zm11.964 0c-.278 0-.55.08-.782.233a1.388 1.388 0 00-.518.62 1.36 1.36 0 00.305 1.507 1.43 1.43 0 001.534.3c.257-.105.477-.283.631-.51a1.365 1.365 0 00-.175-1.745 1.422 1.422 0 00-.995-.405zm11.964 0c-.278 0-.55.08-.782.233a1.388 1.388 0 00-.518.62 1.36 1.36 0 00.305 1.507 1.43 1.43 0 001.534.3c.257-.105.477-.283.632-.51a1.365 1.365 0 00-.176-1.745 1.422 1.422 0 00-.995-.405zM57.447 20.737c-.279 0-.55.08-.782.233a1.388 1.388 0 00-.519.62 1.36 1.36 0 00.305 1.507 1.432 1.432 0 001.534.3 1.4 1.4 0 00.632-.51 1.364 1.364 0 00-.176-1.745 1.422 1.422 0 00-.994-.405zm11.964 0c-.278 0-.55.08-.782.233a1.388 1.388 0 00-.518.62 1.36 1.36 0 00.305 1.507 1.432 1.432 0 001.534.3c.257-.105.477-.282.631-.51a1.364 1.364 0 00-.175-1.745 1.422 1.422 0 00-.995-.405zm11.964 0c-.278 0-.55.08-.782.233a1.388 1.388 0 00-.518.62 1.36 1.36 0 00.305 1.507 1.432 1.432 0 001.534.3c.257-.105.477-.282.632-.51a1.364 1.364 0 00-.176-1.745 1.422 1.422 0 00-.995-.405z" fill="#000" fill-opacity=".17"/><path d="M36.021 33.995c0 .274-.082.541-.237.769a1.402 1.402 0 01-.632.509 1.432 1.432 0 01-1.534-.3 1.36 1.36 0 01-.305-1.507c.107-.252.287-.468.519-.62a1.426 1.426 0 011.776.173c.264.259.413.61.413.977zm10.557-1.382c-.278 0-.55.081-.782.233a1.388 1.388 0 00-.518.62 1.36 1.36 0 00.305 1.507 1.432 1.432 0 001.534.3c.257-.105.477-.282.631-.51a1.364 1.364 0 00-.175-1.744 1.422 1.422 0 00-.995-.406zm11.964 2.765c.279 0 .551-.081.782-.233.232-.152.412-.368.519-.62a1.36 1.36 0 00-.305-1.507 1.431 1.431 0 00-1.534-.3 1.402 1.402 0 00-.632.51 1.365 1.365 0 00.176 1.744c.264.26.621.405.994.406zM34.614 56.114c-.279 0-.55.082-.782.233a1.388 1.388 0 00-.519.62 1.36 1.36 0 00.305 1.508 1.432 1.432 0 001.534.3c.258-.105.477-.283.632-.51a1.364 1.364 0 00-.176-1.745 1.422 1.422 0 00-.994-.406zm11.964 0c-.278 0-.55.082-.782.233a1.388 1.388 0 00-.518.62 1.36 1.36 0 00.305 1.508 1.432 1.432 0 001.534.3c.257-.105.477-.283.631-.51a1.364 1.364 0 00-.175-1.745 1.422 1.422 0 00-.995-.406zm11.964 0c-.278 0-.55.082-.782.233a1.388 1.388 0 00-.518.62 1.36 1.36 0 00.305 1.508 1.432 1.432 0 001.534.3c.257-.105.477-.283.632-.51a1.364 1.364 0 00-.176-1.745 1.422 1.422 0 00-.995-.406zm-23.928-11.75c-.279 0-.55.08-.782.233a1.388 1.388 0 00-.519.62 1.36 1.36 0 00.305 1.507 1.43 1.43 0 001.534.3 1.4 1.4 0 00.632-.51 1.365 1.365 0 00-.176-1.745 1.422 1.422 0 00-.994-.405zm11.964 0c-.278 0-.55.08-.782.233a1.388 1.388 0 00-.518.62 1.36 1.36 0 00.305 1.507 1.43 1.43 0 001.534.3c.257-.105.477-.282.631-.51a1.365 1.365 0 00-.175-1.745 1.422 1.422 0 00-.995-.405zm11.964 0c-.278 0-.55.08-.782.233a1.388 1.388 0 00-.518.62 1.36 1.36 0 00.305 1.507 1.43 1.43 0 001.534.3c.257-.105.477-.282.632-.51a1.365 1.365 0 00-.176-1.745 1.422 1.422 0 00-.995-.405z" fill="#000" fill-opacity=".06"/><path d="M11.965 33.995c0 .274-.083.541-.238.769a1.402 1.402 0 01-.631.509 1.432 1.432 0 01-1.534-.3 1.36 1.36 0 01-.305-1.507 1.39 1.39 0 01.518-.62 1.426 1.426 0 011.777.173c.264.259.412.61.413.977zm10.556-1.382c-.278 0-.55.081-.782.233a1.388 1.388 0 00-.518.62 1.36 1.36 0 00.305 1.507 1.432 1.432 0 001.534.3c.257-.105.477-.282.632-.51a1.365 1.365 0 00-.176-1.744 1.423 1.423 0 00-.995-.406zm11.965 2.765c.278 0 .55-.081.782-.233a1.39 1.39 0 00.518-.62 1.359 1.359 0 00-.305-1.507 1.431 1.431 0 00-1.534-.3 1.403 1.403 0 00-.632.51 1.366 1.366 0 00.176 1.744c.264.26.622.405.995.406zM10.557 56.114c-.278 0-.55.082-.782.233a1.388 1.388 0 00-.518.62 1.36 1.36 0 00.305 1.508 1.432 1.432 0 001.534.3c.257-.105.477-.283.631-.51a1.365 1.365 0 00-.175-1.745 1.423 1.423 0 00-.995-.406zm11.964 0c-.278 0-.55.082-.782.233a1.388 1.388 0 00-.518.62 1.36 1.36 0 00.305 1.508 1.432 1.432 0 001.534.3c.257-.105.477-.283.632-.51a1.365 1.365 0 00-.176-1.745 1.423 1.423 0 00-.995-.406zm11.965 0c-.279 0-.55.082-.782.233a1.388 1.388 0 00-.519.62 1.359 1.359 0 00.305 1.508 1.432 1.432 0 001.534.3c.258-.105.477-.283.632-.51a1.365 1.365 0 00-.175-1.745 1.423 1.423 0 00-.995-.406zm-23.929-11.75c-.278 0-.55.08-.782.233a1.388 1.388 0 00-.518.62 1.36 1.36 0 00.305 1.507 1.43 1.43 0 001.534.3c.257-.105.477-.282.631-.51a1.365 1.365 0 00-.175-1.745 1.422 1.422 0 00-.995-.405zm11.964 0c-.278 0-.55.08-.782.233a1.388 1.388 0 00-.518.62 1.359 1.359 0 00.305 1.507 1.43 1.43 0 001.534.3c.257-.105.477-.282.632-.51a1.366 1.366 0 00-.176-1.745 1.422 1.422 0 00-.995-.405zm11.965 0c-.279 0-.55.08-.782.233a1.388 1.388 0 00-.519.62 1.358 1.358 0 00.305 1.507 1.43 1.43 0 001.534.3 1.4 1.4 0 00.632-.51 1.366 1.366 0 00-.175-1.745 1.422 1.422 0 00-.995-.405z" fill="#000" fill-opacity=".06"/><path d="M36.021 10.368c0 .274-.082.541-.237.768a1.402 1.402 0 01-.632.51 1.432 1.432 0 01-1.534-.3 1.36 1.36 0 01-.305-1.507c.107-.252.287-.468.519-.62a1.426 1.426 0 011.776.172c.264.26.413.61.413.977zm10.557-1.382c-.278 0-.55.08-.782.233a1.388 1.388 0 00-.518.62 1.36 1.36 0 00.305 1.507 1.432 1.432 0 001.534.3c.257-.105.477-.282.631-.51a1.364 1.364 0 00-.175-1.745 1.422 1.422 0 00-.995-.405zm11.964 2.765c.279 0 .551-.081.782-.233.232-.152.412-.368.519-.62a1.36 1.36 0 00-.305-1.507 1.431 1.431 0 00-1.534-.3 1.402 1.402 0 00-.632.51 1.365 1.365 0 00.176 1.744c.264.26.621.405.994.406zM34.614 32.487c-.279 0-.55.081-.782.233a1.388 1.388 0 00-.519.62 1.36 1.36 0 00.305 1.507 1.432 1.432 0 001.534.3 1.4 1.4 0 00.632-.51 1.364 1.364 0 00-.176-1.744 1.422 1.422 0 00-.994-.406zm11.964 0c-.278 0-.55.081-.782.233a1.388 1.388 0 00-.518.62 1.36 1.36 0 00.305 1.507c.197.194.447.325.72.379.274.053.556.026.814-.079.257-.105.477-.282.631-.51a1.364 1.364 0 00-.175-1.744 1.422 1.422 0 00-.995-.406zm11.964 0c-.278 0-.55.081-.782.233a1.388 1.388 0 00-.518.62 1.36 1.36 0 00.305 1.507 1.42 1.42 0 001.534.3c.257-.105.477-.282.632-.51a1.364 1.364 0 00-.176-1.744 1.422 1.422 0 00-.995-.406zm-23.928-11.75c-.279 0-.55.08-.782.233a1.388 1.388 0 00-.519.62 1.36 1.36 0 00.305 1.507 1.43 1.43 0 001.534.3c.258-.105.477-.283.632-.51a1.365 1.365 0 00-.176-1.745 1.422 1.422 0 00-.994-.405zm11.964 0c-.278 0-.55.08-.782.233a1.388 1.388 0 00-.518.62 1.36 1.36 0 00.305 1.507 1.43 1.43 0 001.534.3c.257-.105.477-.283.631-.51a1.365 1.365 0 00-.175-1.745 1.422 1.422 0 00-.995-.405zm11.964 0c-.278 0-.55.08-.782.233a1.388 1.388 0 00-.518.62 1.36 1.36 0 00.305 1.507 1.43 1.43 0 001.534.3c.257-.105.477-.283.632-.51a1.365 1.365 0 00-.176-1.745 1.422 1.422 0 00-.995-.405z" fill="#000" fill-opacity=".06"/><path d="M11.965 10.368c0 .274-.083.541-.238.769a1.402 1.402 0 01-.631.509 1.431 1.431 0 01-1.534-.3 1.36 1.36 0 01-.305-1.507 1.39 1.39 0 01.518-.62 1.426 1.426 0 011.777.173c.264.259.412.61.413.976zM22.52 8.986c-.278 0-.55.081-.782.233a1.388 1.388 0 00-.518.62 1.36 1.36 0 00.305 1.507 1.431 1.431 0 001.534.3c.257-.105.477-.282.632-.51a1.366 1.366 0 00-.176-1.744 1.422 1.422 0 00-.995-.406zm11.965 2.765c.278 0 .55-.081.782-.233a1.39 1.39 0 00.518-.62 1.36 1.36 0 00-.305-1.507 1.431 1.431 0 00-1.534-.3 1.403 1.403 0 00-.632.51 1.365 1.365 0 00.176 1.745c.264.259.622.405.995.405zM10.557 32.488c-.278 0-.55.08-.782.233a1.388 1.388 0 00-.518.62 1.36 1.36 0 00.305 1.507 1.431 1.431 0 001.534.3c.257-.105.477-.283.631-.51a1.365 1.365 0 00-.175-1.745 1.422 1.422 0 00-.995-.405zm11.964 0c-.278 0-.55.08-.782.233a1.388 1.388 0 00-.518.62 1.359 1.359 0 00.305 1.507 1.431 1.431 0 001.534.3c.257-.105.477-.283.632-.51a1.366 1.366 0 00-.176-1.745 1.422 1.422 0 00-.995-.405zm11.965 0c-.279 0-.55.08-.782.233a1.388 1.388 0 00-.519.62 1.358 1.358 0 00.305 1.507 1.431 1.431 0 001.534.3c.258-.105.477-.283.632-.51a1.366 1.366 0 00-.175-1.745 1.422 1.422 0 00-.995-.405zM10.557 20.737c-.278 0-.55.08-.782.233a1.388 1.388 0 00-.518.62 1.36 1.36 0 00.305 1.507 1.432 1.432 0 001.534.3c.257-.105.477-.282.631-.51a1.365 1.365 0 00-.175-1.745 1.423 1.423 0 00-.995-.405zm11.964 0c-.278 0-.55.08-.782.233a1.388 1.388 0 00-.518.62 1.36 1.36 0 00.305 1.507 1.432 1.432 0 001.534.3c.257-.105.477-.282.632-.51a1.365 1.365 0 00-.176-1.745 1.423 1.423 0 00-.995-.405zm11.965 0c-.279 0-.55.08-.782.233a1.388 1.388 0 00-.519.62 1.358 1.358 0 00.305 1.507 1.432 1.432 0 001.534.3 1.4 1.4 0 00.632-.51 1.365 1.365 0 00-.175-1.745 1.423 1.423 0 00-.995-.405z" fill="#000" fill-opacity=".06"/></svg>