<svg width="82" height="62" fill="none" xmlns="http://www.w3.org/2000/svg"><path d="M41 54.651l35.76-34.758A3.074 3.074 0 0182 22.128a3.067 3.067 0 01-.954 2.165L43.143 61.13a3.075 3.075 0 01-4.286 0L.954 24.293a3.07 3.07 0 013.28-5.066c.376.153.718.38 1.006.666L41 54.655v-.004z" fill="#EA6767" fill-opacity=".77"/><path d="M41 30.677L71.527.768A2.622 2.622 0 0173.398 0a2.609 2.609 0 011.859.8 2.644 2.644 0 01.742 1.892 2.656 2.656 0 01-.813 1.862L42.829 36.252a2.614 2.614 0 01-3.658 0L6.814 4.554A2.641 2.641 0 016 2.692 2.658 2.658 0 016.743.799 2.623 2.623 0 018.602 0a2.608 2.608 0 011.871.768L41 30.68v-.003z" fill="#EA6767" fill-opacity=".49"/></svg>